<svg width="1602" height="465" viewBox="0 0 1602 465" fill="none" xmlns="http://www.w3.org/2000/svg">
<g clip-path="url(#clip0)">
<path d="M335.416 302.741C345.308 298.455 354.293 292.474 362.003 285.159C354.293 292.474 345.308 298.455 335.416 302.741Z" fill="#FFC017"/>
<path d="M15.333 226.363C15.805 231.673 16.777 236.841 18.196 241.822H77.41C76.116 236.822 75.238 231.656 74.808 226.363H15.333Z" fill="#FFC017"/>
<path d="M79.706 256.822H24.102C26.922 262.354 30.329 267.539 34.256 272.281H91.74C88.145 267.3 85.036 261.945 82.49 256.281C81.629 256.627 80.69 256.822 79.706 256.822Z" fill="#FFC017"/>
<path d="M97.775 287.282H50.428C64.122 297.008 80.84 302.741 98.878 302.741H129.584C119.692 298.455 110.707 292.474 102.997 285.159C101.646 286.471 99.807 287.282 97.775 287.282Z" fill="#FFC017"/>
<path d="M77.41 241.822H79.705C83.847 241.822 87.205 245.18 87.205 249.322C87.205 252.479 85.252 255.176 82.49 256.282C85.036 261.946 88.144 267.301 91.74 272.282H97.775C101.917 272.282 105.275 275.64 105.275 279.782C105.275 281.893 104.4 283.797 102.997 285.159C110.707 292.474 119.692 298.455 129.584 302.741H158.18V226.363H74.808C75.238 231.656 76.117 236.823 77.41 241.822Z" fill="#FECC33"/>
<path d="M306.82 226.363V302.741H335.416C345.308 298.455 354.293 292.474 362.003 285.159C360.6 283.796 359.725 281.892 359.725 279.782C359.725 275.64 363.083 272.282 367.225 272.282H373.26C376.855 267.301 379.964 261.946 382.51 256.282C379.748 255.176 377.795 252.479 377.795 249.322C377.795 245.18 381.153 241.822 385.295 241.822H387.59C388.884 236.822 389.762 231.656 390.192 226.363H306.82V226.363Z" fill="#FECC33"/>
<path d="M366.122 302.741C384.16 302.741 400.878 297.007 414.572 287.282H367.225C365.194 287.282 363.354 286.471 362.003 285.159C354.293 292.474 345.308 298.455 335.416 302.741H366.122Z" fill="#FFC017"/>
<path d="M390.192 226.363C389.762 231.656 388.884 236.822 387.59 241.822H446.805C448.224 236.841 449.196 231.673 449.668 226.363H390.192Z" fill="#FFC017"/>
<path d="M430.744 272.282C434.671 267.54 438.078 262.355 440.898 256.823H385.295C384.31 256.823 383.372 256.628 382.51 256.283C379.964 261.947 376.856 267.302 373.26 272.283H430.744V272.282Z" fill="#FFC017"/>
<path d="M270.193 197.236H263.637C259.495 197.236 256.137 193.878 256.137 189.736C256.137 176.702 245.533 166.098 232.5 166.098C222.088 166.098 213.233 172.868 210.089 182.236H233.637C237.779 182.236 241.137 185.594 241.137 189.736C241.137 193.878 237.779 197.236 233.637 197.236H201.362H194.806C182.881 197.236 173.179 206.938 173.179 218.863C173.179 230.788 182.881 240.489 194.806 240.489H212.51C220.152 240.489 227.268 243.523 232.499 248.622C237.73 243.523 244.846 240.489 252.488 240.489H270.193C282.118 240.489 291.82 230.787 291.82 218.863C291.82 206.938 282.119 197.236 270.193 197.236Z" fill="#FFC017"/>
<path d="M252.489 255.49C247.039 255.49 242.153 258.732 240 263.662V369.071C269.179 365.371 291.82 340.409 291.82 310.241V248.398C285.755 252.851 278.278 255.489 270.193 255.489H252.489V255.49Z" fill="#FFC017"/>
<path d="M212.511 255.49H194.807C186.723 255.49 179.245 252.852 173.18 248.399V310.242C173.18 340.409 195.821 365.371 225 369.072V263.662C222.847 258.731 217.961 255.49 212.511 255.49Z" fill="#FFC017"/>
<path d="M457.5 211.363H336.82V192.466C336.82 160.173 322.175 130.204 296.64 110.243C293.375 107.691 288.663 108.269 286.112 111.533C283.561 114.797 284.138 119.51 287.402 122.061C309.276 139.159 321.82 164.821 321.82 192.466V211.363H306.044C302.587 194.82 287.937 182.337 270.406 182.237C266.905 164.509 251.239 151.099 232.499 151.099C213.759 151.099 198.093 164.51 194.592 182.237C177.061 182.338 162.411 194.82 158.954 211.363H143.18V192.466C143.18 164.82 155.724 139.158 177.597 122.061C180.86 119.51 181.438 114.797 178.887 111.533C176.337 108.27 171.625 107.692 168.359 110.243C142.825 130.203 128.18 160.172 128.18 192.466V211.363H7.5C3.358 211.363 0 214.721 0 218.863C0 273.384 44.356 317.741 98.878 317.741H128.46C131.457 359.858 159.506 396.15 200.168 409.434C200.942 409.686 201.727 409.807 202.499 409.807C205.656 409.807 208.593 407.798 209.627 404.634C210.913 400.696 208.764 396.462 204.827 395.176C170.353 383.914 146.46 353.345 143.496 317.742H158.557C162.329 355.213 194.051 384.562 232.5 384.562C270.949 384.562 302.67 355.213 306.443 317.742H321.504C318.54 353.345 294.647 383.914 260.173 395.176C256.236 396.463 254.087 400.697 255.373 404.634C256.407 407.798 259.344 409.807 262.501 409.807C263.272 409.807 264.058 409.687 264.832 409.434C305.495 396.15 333.543 359.858 336.541 317.741H366.123C420.644 317.741 465.001 273.385 465.001 218.863C465 214.721 461.642 211.363 457.5 211.363ZM158.18 302.741H129.584H98.878C80.84 302.741 64.122 297.007 50.428 287.282H97.775C99.806 287.282 101.646 286.471 102.997 285.159C104.4 283.796 105.275 281.892 105.275 279.782C105.275 275.64 101.917 272.282 97.775 272.282H91.74H34.256C30.329 267.54 26.922 262.355 24.102 256.823H79.705C80.69 256.823 81.628 256.628 82.49 256.283C85.252 255.177 87.205 252.48 87.205 249.323C87.205 245.181 83.847 241.823 79.705 241.823H77.41H18.196C16.777 236.842 15.805 231.674 15.333 226.364H74.809H158.18V302.741ZM225 369.071C195.821 365.371 173.18 340.409 173.18 310.241V248.398C179.245 252.851 186.722 255.489 194.807 255.489H212.511C217.961 255.489 222.847 258.731 225 263.661V369.071V369.071ZM291.82 310.241C291.82 340.408 269.179 365.37 240 369.071V263.662C242.153 258.732 247.039 255.49 252.489 255.49H270.194C278.278 255.49 285.756 252.852 291.821 248.399V310.241H291.82ZM270.193 240.49H252.488C244.846 240.49 237.731 243.524 232.499 248.623C227.268 243.524 220.152 240.49 212.51 240.49H194.806C182.881 240.49 173.179 230.788 173.179 218.864C173.179 206.939 182.881 197.237 194.806 197.237H201.362H233.637C237.779 197.237 241.137 193.879 241.137 189.737C241.137 185.595 237.779 182.237 233.637 182.237H210.089C213.232 172.87 222.088 166.099 232.5 166.099C245.534 166.099 256.137 176.703 256.137 189.737C256.137 193.879 259.495 197.237 263.637 197.237H270.193C282.118 197.237 291.82 206.939 291.82 218.864C291.82 230.788 282.119 240.49 270.193 240.49ZM446.804 241.822H387.59H385.295C381.153 241.822 377.795 245.18 377.795 249.322C377.795 252.479 379.748 255.176 382.51 256.282C383.372 256.627 384.31 256.822 385.295 256.822H440.898C438.078 262.354 434.671 267.539 430.744 272.281H373.26H367.225C363.083 272.281 359.725 275.639 359.725 279.781C359.725 281.892 360.6 283.796 362.003 285.158C363.354 286.47 365.193 287.281 367.225 287.281H414.572C400.878 297.007 384.16 302.74 366.122 302.74H335.416H306.82V226.362H390.191H449.667C449.195 231.673 448.224 236.841 446.804 241.822Z" fill="black"/>
<path d="M232.5 121.099C246.534 121.099 257.952 109.681 257.952 95.6461C257.952 81.6111 246.534 70.1931 232.5 70.1931C218.465 70.1931 207.047 81.6111 207.047 95.6461C207.047 109.681 218.465 121.099 232.5 121.099Z" fill="#E43017"/>
<path d="M232.5 136.099C254.805 136.099 272.952 117.952 272.952 95.6461C272.952 73.3401 254.805 55.1931 232.5 55.1931C210.194 55.1931 192.047 73.3401 192.047 95.6461C192.047 117.952 210.194 136.099 232.5 136.099ZM232.5 70.1931C246.534 70.1931 257.952 81.6111 257.952 95.6461C257.952 109.681 246.534 121.099 232.5 121.099C218.465 121.099 207.047 109.681 207.047 95.6461C207.047 81.6111 218.465 70.1931 232.5 70.1931Z" fill="black"/>
</g>
<path d="M675.512 139.416C669.56 145.944 662.84 153.24 655.352 161.304C647.864 169.176 639.992 177.336 631.736 185.784C623.672 194.04 615.608 202.2 607.544 210.264C599.48 218.328 591.896 225.816 584.792 232.728C593.048 238.488 601.784 245.592 611 254.04C620.216 262.488 629.24 271.512 638.072 281.112C646.904 290.712 655.16 300.504 662.84 310.488C670.712 320.472 677.24 329.976 682.424 339H649.592C643.832 329.976 637.208 320.952 629.72 311.928C622.232 302.712 614.264 293.976 605.816 285.72C597.56 277.272 589.112 269.496 580.472 262.392C572.024 255.288 563.768 249.24 555.704 244.248V339H527.768V139.416H555.704V227.544C562.424 221.208 569.816 214.104 577.88 206.232C585.944 198.168 593.912 190.104 601.784 182.04C609.656 173.976 617.048 166.296 623.96 159C631.064 151.512 637.016 144.984 641.816 139.416H675.512ZM707.165 339V120.12L733.949 115.512V192.12C738.941 190.2 744.221 188.76 749.789 187.8C755.549 186.648 761.213 186.072 766.781 186.072C778.685 186.072 788.573 187.8 796.445 191.256C804.317 194.52 810.557 199.224 815.165 205.368C819.965 211.32 823.325 218.52 825.245 226.968C827.165 235.416 828.125 244.728 828.125 254.904V339H801.341V260.664C801.341 251.448 800.669 243.576 799.325 237.048C798.173 230.52 796.157 225.24 793.277 221.208C790.397 217.176 786.557 214.296 781.757 212.568C776.957 210.648 771.005 209.688 763.901 209.688C761.021 209.688 758.045 209.88 754.973 210.264C751.901 210.648 748.925 211.128 746.045 211.704C743.357 212.088 740.861 212.568 738.557 213.144C736.445 213.72 734.909 214.2 733.949 214.584V339H707.165ZM863.344 264.408C863.344 251.16 865.264 239.64 869.104 229.848C872.944 219.864 878.032 211.608 884.368 205.08C890.704 198.552 898 193.656 906.256 190.392C914.512 187.128 922.96 185.496 931.6 185.496C951.76 185.496 967.216 191.832 977.968 204.504C988.72 216.984 994.096 236.088 994.096 261.816C994.096 262.968 994.096 264.504 994.096 266.424C994.096 268.152 994 269.784 993.808 271.32H891.28C892.432 286.872 896.944 298.68 904.816 306.744C912.688 314.808 924.976 318.84 941.68 318.84C951.088 318.84 958.96 318.072 965.296 316.536C971.824 314.808 976.72 313.176 979.984 311.64L983.728 334.104C980.464 335.832 974.704 337.656 966.448 339.576C958.384 341.496 949.168 342.456 938.8 342.456C925.744 342.456 914.416 340.536 904.816 336.696C895.408 332.664 887.632 327.192 881.488 320.28C875.344 313.368 870.736 305.208 867.664 295.8C864.784 286.2 863.344 275.736 863.344 264.408ZM966.16 249.72C966.352 237.624 963.28 227.736 956.944 220.056C950.8 212.184 942.256 208.248 931.312 208.248C925.168 208.248 919.696 209.496 914.896 211.992C910.288 214.296 906.352 217.368 903.088 221.208C899.824 225.048 897.232 229.464 895.312 234.456C893.584 239.448 892.432 244.536 891.856 249.72H966.16ZM1136.54 264.408C1136.54 246.936 1132.22 233.496 1123.58 224.088C1114.94 214.68 1103.42 209.976 1089.02 209.976C1080.96 209.976 1074.62 210.264 1070.01 210.84C1065.6 211.416 1062.04 212.088 1059.36 212.856V307.32C1062.62 310.008 1067.32 312.6 1073.47 315.096C1079.61 317.592 1086.33 318.84 1093.63 318.84C1101.31 318.84 1107.84 317.496 1113.21 314.808C1118.78 311.928 1123.29 308.088 1126.75 303.288C1130.2 298.296 1132.7 292.536 1134.24 286.008C1135.77 279.288 1136.54 272.088 1136.54 264.408ZM1164.48 264.408C1164.48 275.736 1162.94 286.2 1159.87 295.8C1156.99 305.4 1152.67 313.656 1146.91 320.568C1141.15 327.48 1134.04 332.856 1125.6 336.696C1117.34 340.536 1107.84 342.456 1097.08 342.456C1088.44 342.456 1080.76 341.304 1074.04 339C1067.52 336.696 1062.62 334.488 1059.36 332.376V392.28H1032.57V193.848C1038.91 192.312 1046.78 190.68 1056.19 188.952C1065.79 187.032 1076.83 186.072 1089.31 186.072C1100.83 186.072 1111.2 187.896 1120.41 191.544C1129.63 195.192 1137.5 200.376 1144.03 207.096C1150.56 213.816 1155.55 222.072 1159 231.864C1162.65 241.464 1164.48 252.312 1164.48 264.408ZM1193.81 264.408C1193.81 251.16 1195.73 239.64 1199.57 229.848C1203.41 219.864 1208.5 211.608 1214.84 205.08C1221.17 198.552 1228.47 193.656 1236.73 190.392C1244.98 187.128 1253.43 185.496 1262.07 185.496C1282.23 185.496 1297.69 191.832 1308.44 204.504C1319.19 216.984 1324.56 236.088 1324.56 261.816C1324.56 262.968 1324.56 264.504 1324.56 266.424C1324.56 268.152 1324.47 269.784 1324.28 271.32H1221.75C1222.9 286.872 1227.41 298.68 1235.29 306.744C1243.16 314.808 1255.45 318.84 1272.15 318.84C1281.56 318.84 1289.43 318.072 1295.77 316.536C1302.29 314.808 1307.19 313.176 1310.45 311.64L1314.2 334.104C1310.93 335.832 1305.17 337.656 1296.92 339.576C1288.85 341.496 1279.64 342.456 1269.27 342.456C1256.21 342.456 1244.89 340.536 1235.29 336.696C1225.88 332.664 1218.1 327.192 1211.96 320.28C1205.81 313.368 1201.21 305.208 1198.13 295.8C1195.25 286.2 1193.81 275.736 1193.81 264.408ZM1296.63 249.72C1296.82 237.624 1293.75 227.736 1287.41 220.056C1281.27 212.184 1272.73 208.248 1261.78 208.248C1255.64 208.248 1250.17 209.496 1245.37 211.992C1240.76 214.296 1236.82 217.368 1233.56 221.208C1230.29 225.048 1227.7 229.464 1225.78 234.456C1224.05 239.448 1222.9 244.536 1222.33 249.72H1296.63ZM1418.34 186.072C1420.64 186.072 1423.23 186.264 1426.11 186.648C1429.18 186.84 1432.16 187.224 1435.04 187.8C1437.92 188.184 1440.51 188.664 1442.82 189.24C1445.31 189.624 1447.14 190.008 1448.29 190.392L1443.68 213.72C1441.57 212.952 1438.02 212.088 1433.02 211.128C1428.22 209.976 1421.98 209.4 1414.3 209.4C1409.31 209.4 1404.32 209.976 1399.33 211.128C1394.53 212.088 1391.36 212.76 1389.82 213.144V339H1363.04V195.576C1369.38 193.272 1377.25 191.16 1386.66 189.24C1396.06 187.128 1406.62 186.072 1418.34 186.072ZM1524.82 319.704C1531.16 319.704 1536.73 319.608 1541.53 319.416C1546.52 319.032 1550.65 318.456 1553.91 317.688V273.048C1551.99 272.088 1548.82 271.32 1544.41 270.744C1540.18 269.976 1535 269.592 1528.85 269.592C1524.82 269.592 1520.5 269.88 1515.89 270.456C1511.48 271.032 1507.35 272.28 1503.51 274.2C1499.86 275.928 1496.79 278.424 1494.29 281.688C1491.8 284.76 1490.55 288.888 1490.55 294.072C1490.55 303.672 1493.62 310.392 1499.77 314.232C1505.91 317.88 1514.26 319.704 1524.82 319.704ZM1522.52 185.496C1533.27 185.496 1542.29 186.936 1549.59 189.816C1557.08 192.504 1563.03 196.44 1567.45 201.624C1572.05 206.616 1575.32 212.664 1577.24 219.768C1579.16 226.68 1580.12 234.36 1580.12 242.808V336.408C1577.81 336.792 1574.55 337.368 1570.33 338.136C1566.29 338.712 1561.69 339.288 1556.5 339.864C1551.32 340.44 1545.65 340.92 1539.51 341.304C1533.56 341.88 1527.61 342.168 1521.65 342.168C1513.21 342.168 1505.43 341.304 1498.33 339.576C1491.22 337.848 1485.08 335.16 1479.89 331.512C1474.71 327.672 1470.68 322.68 1467.8 316.536C1464.92 310.392 1463.48 303 1463.48 294.36C1463.48 286.104 1465.11 279 1468.37 273.048C1471.83 267.096 1476.44 262.296 1482.2 258.648C1487.96 255 1494.68 252.312 1502.36 250.584C1510.04 248.856 1518.1 247.992 1526.55 247.992C1529.24 247.992 1532.02 248.184 1534.9 248.568C1537.78 248.76 1540.47 249.144 1542.97 249.72C1545.65 250.104 1547.96 250.488 1549.88 250.872C1551.8 251.256 1553.14 251.544 1553.91 251.736V244.248C1553.91 239.832 1553.43 235.512 1552.47 231.288C1551.51 226.872 1549.78 223.032 1547.29 219.768C1544.79 216.312 1541.33 213.624 1536.92 211.704C1532.69 209.592 1527.13 208.536 1520.21 208.536C1511.38 208.536 1503.61 209.208 1496.89 210.552C1490.36 211.704 1485.46 212.952 1482.2 214.296L1479.03 192.12C1482.49 190.584 1488.25 189.144 1496.31 187.8C1504.37 186.264 1513.11 185.496 1522.52 185.496Z" fill="white"/>
<defs>
<clipPath id="clip0">
<rect width="465" height="465" fill="white"/>
</clipPath>
</defs>
</svg>
