<?xml version="1.0" standalone="no"?>
<!DOCTYPE svg PUBLIC "-//W3C//DTD SVG 20010904//EN"
 "http://www.w3.org/TR/2001/REC-SVG-20010904/DTD/svg10.dtd">
<svg version="1.0" xmlns="http://www.w3.org/2000/svg"
 width="700.000000pt" height="700.000000pt" viewBox="0 0 700.000000 700.000000"
 preserveAspectRatio="xMidYMid meet">
<metadata>
Created by potrace 1.11, written by Peter Selinger 2001-2013
</metadata>
<g transform="translate(0.000000,700.000000) scale(0.100000,-0.100000)"
fill="#000000" stroke="none">
<path d="M3340 6146 c-164 -49 -274 -133 -363 -279 -54 -88 -79 -174 -82 -284
-4 -112 13 -193 60 -288 107 -218 321 -348 558 -340 103 4 108 5 191 34 195
69 349 245 393 451 2 8 6 49 9 90 21 265 -161 526 -426 611 -99 32 -244 34
-340 5z"/>
<path d="M2571 5359 c-62 -24 -239 -195 -332 -321 -158 -213 -270 -489 -295
-730 -4 -35 -8 -72 -10 -83 -1 -11 -3 -107 -3 -212 l-1 -193 -916 0 c-1008 0
-960 3 -998 -61 -16 -27 -17 -45 -12 -132 10 -144 13 -170 41 -280 31 -122 84
-257 143 -362 39 -70 97 -160 112 -175 3 -3 25 -30 50 -60 160 -197 410 -368
661 -453 196 -66 304 -79 661 -80 147 0 266 -3 264 -6 -2 -3 0 -34 5 -69 10
-70 13 -89 33 -188 12 -57 80 -243 116 -316 130 -261 324 -477 570 -635 78
-50 221 -120 309 -152 78 -28 122 -22 163 21 32 34 37 81 14 126 -16 31 -26
37 -146 86 -295 120 -530 329 -683 606 -64 117 -125 295 -142 416 -3 21 -8 55
-11 75 l-5 35 115 1 c112 1 116 0 116 -21 0 -11 7 -52 15 -91 46 -217 149
-407 303 -562 223 -224 506 -336 827 -328 292 8 548 119 758 329 155 155 260
354 306 581 l18 90 109 0 109 0 -3 -50 c-2 -27 -14 -95 -27 -151 -74 -312
-256 -584 -520 -774 -89 -64 -246 -147 -330 -175 -57 -18 -74 -30 -98 -65 -36
-52 -8 -135 53 -160 40 -16 83 -7 207 47 417 179 732 523 873 953 35 106 69
265 73 345 l2 33 265 0 c146 0 294 3 330 7 589 62 1081 459 1265 1020 19 58
36 115 39 127 2 13 7 43 11 68 4 25 9 54 11 65 3 11 7 63 10 115 5 74 3 104
-10 133 -29 70 21 67 -1001 67 l-915 0 0 188 c0 250 -17 387 -71 562 -25 82
-84 221 -121 283 -15 26 -28 51 -28 54 0 7 -110 162 -147 205 -48 58 -191 194
-234 223 -47 33 -95 36 -135 10 -32 -20 -55 -73 -48 -110 5 -31 32 -75 45 -75
5 0 55 -47 112 -103 190 -189 311 -408 371 -668 22 -99 29 -179 30 -382 l2
-188 -120 3 -120 3 -12 42 c-35 122 -149 261 -260 320 -65 34 -145 59 -212 66
-41 4 -56 11 -58 25 -9 75 -79 197 -159 277 -279 279 -745 201 -923 -154 -23
-46 -42 -91 -42 -100 0 -30 -17 -43 -61 -48 -215 -21 -395 -165 -469 -376
l-18 -52 -119 -3 -119 -3 2 188 c1 204 6 266 29 373 3 14 7 36 10 49 7 40 47
155 58 169 5 6 6 12 3 12 -12 0 82 174 137 253 68 99 162 203 242 268 84 68
101 122 59 186 -24 38 -82 58 -123 42z"/>
</g>
</svg>
